<?xml version="1.0" encoding="UTF-8" standalone="no"?>
<svg
   xmlns:dc="http://purl.org/dc/elements/1.1/"
   xmlns:cc="http://creativecommons.org/ns#"
   xmlns:rdf="http://www.w3.org/1999/02/22-rdf-syntax-ns#"
   xmlns:svg="http://www.w3.org/2000/svg"
   xmlns="http://www.w3.org/2000/svg"
   xmlns:sodipodi="http://sodipodi.sourceforge.net/DTD/sodipodi-0.dtd"
   xmlns:inkscape="http://www.inkscape.org/namespaces/inkscape"
   width="210mm"
   height="297mm"
   viewBox="0 0 210 297"
   version="1.1"
   id="svg8"
   inkscape:version="1.0.2 (e86c870879, 2021-01-15)"
   sodipodi:docname="drawing.svg">
  <defs
     id="defs2" />
  <sodipodi:namedview
     id="base"
     pagecolor="#ffffff"
     bordercolor="#666666"
     borderopacity="1.0"
     inkscape:pageopacity="0.0"
     inkscape:pageshadow="2"
     inkscape:zoom="0.24748737"
     inkscape:cx="12223.261"
     inkscape:cy="996.30432"
     inkscape:document-units="mm"
     inkscape:current-layer="layer1"
     inkscape:document-rotation="0"
     showgrid="false"
     showborder="false"
     inkscape:window-width="1918"
     inkscape:window-height="1044"
     inkscape:window-x="1440"
     inkscape:window-y="19"
     inkscape:window-maximized="0" />
  <metadata
     id="metadata5">
    <rdf:RDF>
      <cc:Work
         rdf:about="">
        <dc:format>image/svg+xml</dc:format>
        <dc:type
           rdf:resource="http://purl.org/dc/dcmitype/StillImage" />
        <dc:title></dc:title>
      </cc:Work>
    </rdf:RDF>
  </metadata>
  <g
     inkscape:label="Layer 1"
     inkscape:groupmode="layer"
     id="layer1">
    <path
       style="fill:none;stroke:#000000;stroke-width:0.264583px;stroke-linecap:butt;stroke-linejoin:miter;stroke-opacity:1"
       d="m -339.97061,-11.7795 c -2.1794,-5.420302 -7.33928,-13.088943 -3.73592,-18.953267 1.6191,-2.635001 4.85638,-4.350064 7.27515,-6.047541 2.35892,-1.655474 3.60828,-3.091426 6.25565,-4.184946 5.80945,-2.399655 14.96179,3.27225 17.37915,8.479496 0.5891,1.268918 0.80579,2.679583 1.23203,4.012059 0.40683,1.271852 2.44372,5.426907 1.62912,7.047913 -1.99559,3.971173 -7.15679,4.700325 -10.74499,6.312676 -7.9706,3.581572 -11.49292,7.0945386 -18.67286,0.920925 -1.61314,-1.387041 -2.15779,-2.563469 -2.15779,-4.604624"
       id="path877" />
    <path
       style="fill:none;stroke:#000000;stroke-width:0.264583px;stroke-linecap:butt;stroke-linejoin:miter;stroke-opacity:1"
       d="m -330.16105,85.524273 c -3.79518,0.05302 -5.41872,0.790583 -6.54079,-3.354488 -0.71946,-2.657713 -0.92133,-4.837041 -0.69755,-7.587835 0.30713,-3.775247 3.05007,-4.252769 5.9776,-5.905934 1.59602,-0.901258 2.43573,-2.374765 4.31221,-2.69227 5.44457,-0.921239 15.22722,5.418982 15.97562,11.091556 0.77433,5.868926 -3.36749,8.840057 -7.84733,11.400438 -0.75825,0.433366 -1.46037,1.052464 -2.3168,1.223592 -1.24434,0.248636 -2.53786,0 -3.80677,0 -1.80353,0 -3.67644,0.495466 -5.41057,0 -1.79044,-0.511551 -1.98678,-1.83432 -2.73272,-3.324098"
       id="path879" />
    <path
       style="fill:none;stroke:#000000;stroke-width:0.264583px;stroke-linecap:butt;stroke-linejoin:miter;stroke-opacity:1"
       d="m -170.00541,-17.939211 c -2.44101,-2.17337 -6.48294,-11.42312 -2.13959,-13.653811 1.27566,-0.655164 2.76639,-0.760114 4.13276,-1.195536 3.63729,-1.159102 7.24896,-2.397091 10.87616,-3.587387 3.139,-1.030092 19.16423,-6.917177 19.88979,-6.566961 1.22337,0.590497 2.26593,1.551159 3.15855,2.575142 4.76575,5.467093 0.47041,22.56318 -4.91538,26.065631 -0.93185,0.605997 -6.55962,0.756066 -7.27905,0.554653 -9.88496,-2.76741 -19.51919,-8.454575 -27.70605,-14.547445"
       id="path881" />
    <path
       style="fill:none;stroke:#000000;stroke-width:0.264583px;stroke-linecap:butt;stroke-linejoin:miter;stroke-opacity:1"
       d="m -150.32775,93.31889 c -1.53439,0 -3.69334,0.55681 -4.72968,-1.205976 -2.70768,-4.605658 -4.59506,-12.8162 -3.38355,-18.08857 0.7162,-3.116789 3.36987,-6.741189 6.07947,-8.467995 2.04076,-1.300552 12.35139,-2.879728 14.54636,-1.826678 2.45771,1.17911 5.98944,6.080739 6.40285,8.74572 0.74188,4.782462 -0.25542,10.529615 -2.8323,14.624915 -3.88333,6.171573 -10.18994,7.012064 -16.5176,8.244768 -0.8826,0.171942 -3.40973,1.455219 -4.51435,0.205933 -0.70459,-0.796869 -0.93544,-1.910688 -1.40316,-2.866035"
       id="path883" />
    <path
       style="fill:none;stroke:#000000;stroke-width:0.264583px;stroke-linecap:butt;stroke-linejoin:miter;stroke-opacity:1"
       d="m -173.98822,-28.294925 c -138.03929,0.837941 -137.1291,0.692087 -137.1291,0.692087"
       id="path887" />
    <path
       style="fill:none;stroke:#000000;stroke-width:0.264583px;stroke-linecap:butt;stroke-linejoin:miter;stroke-opacity:1"
       d="m -158.21351,78.116532 c -151.37595,0.2813 -151.37595,0.2813 -151.37595,0.2813"
       id="path889" />
    <path
       style="fill:none;stroke:#000000;stroke-width:0.264583px;stroke-linecap:butt;stroke-linejoin:miter;stroke-opacity:1"
       d="m -324.64406,-11.565231 c 0.1793,79.962787 0.1793,79.962787 0.1793,79.962787"
       id="path891" />
    <path
       style="fill:none;stroke:#000000;stroke-width:0.264583px;stroke-linecap:butt;stroke-linejoin:miter;stroke-opacity:1"
       d="m -143.25307,-15.076503 c -1.80068,79.360484 -1.80068,79.360484 -1.80068,79.360484"
       id="path893" />
    <path
       style="fill:none;stroke:#000000;stroke-width:0.264583px;stroke-linecap:butt;stroke-linejoin:miter;stroke-opacity:1"
       d="m -424.90516,-31.392603 c 76.68376,2.904516 78.18286,2.838222 78.18286,2.838222"
       id="path895" />
    <path
       style="fill:none;stroke:#000000;stroke-width:0.264583px;stroke-linecap:butt;stroke-linejoin:miter;stroke-opacity:1"
       d="m -313.1689,-104.87286 c -8.00849,61.835127 -8.00849,61.835127 -8.00849,61.835127"
       id="path897" />
    <path
       style="fill:none;stroke:#000000;stroke-width:0.264583px;stroke-linecap:butt;stroke-linejoin:miter;stroke-opacity:1"
       d="m -148.69921,-97.492806 c 0.14704,4.455777 -0.20323,8.922893 0,13.377389 0.65381,14.330754 0.56331,14.705655 4.79597,28.769484 1.5939,5.296038 4.2694,10.48326 5.63642,15.886354 0.24021,0.949459 0.60153,4.966041 0,5.648174 -0.21257,0.241048 -0.64278,0 -0.96416,0"
       id="path899" />
    <path
       style="fill:none;stroke:#000000;stroke-width:0.264583px;stroke-linecap:butt;stroke-linejoin:miter;stroke-opacity:1"
       d="m -407.68293,77.607066 c 0.98284,0.698866 1.80176,1.723322 2.94851,2.096593 5.57168,1.813579 16.68431,1.437812 22.21881,1.437812 7.19879,0 14.39757,0 21.59638,0 2.89428,0 8.30532,0.774758 11.5934,0 1.27051,-0.299368 1.09191,-0.66054 2.25881,-0.66054 1.48616,0 -2.02407,0.04713 2.06427,-0.651828 0.88181,-0.150754 7.70488,-0.480073 8.0181,0 1.37289,2.104216 2.491,4.364088 3.7365,6.546131"
       id="path901" />
    <path
       style="fill:none;stroke:#000000;stroke-width:0.264583px;stroke-linecap:butt;stroke-linejoin:miter;stroke-opacity:1"
       d="m -318.01204,151.43579 c -3.99614,-3.19839 -2.89804,-2.44102 -2.63465,-6.79299 0.30459,-5.03276 0.26446,-10.09087 0,-15.12589 -0.39031,-7.43063 -2.66303,-15.1583 -1.59141,-22.65951 0.43283,-3.02986 1.60361,-5.97488 1.60361,-9.039625"
       id="path903" />
    <path
       style="fill:none;stroke:#000000;stroke-width:0.264583px;stroke-linecap:butt;stroke-linejoin:miter;stroke-opacity:1"
       d="m -143.62083,144.79963 c 0.67876,-9.63407 -1.33237,-19.61199 0.59327,-29.15101 -1.00916,-2.10891 1.54565,-2.73727 1.8979,-4.24747 0.39123,-1.67732 0,-4.26776 0,-6.00087"
       id="path905" />
    <path
       style="fill:none;stroke:#000000;stroke-width:0.264583px;stroke-linecap:butt;stroke-linejoin:miter;stroke-opacity:1"
       d="m -55.93463,-26.838891 c -20.747146,2.784637 -41.744672,-2.46176 -62.37376,-4.189675 -13.79837,-1.155766 -6.96051,1.384385 -20.92259,-2.782839"
       id="path907" />
    <path
       style="fill:none;stroke:#000000;stroke-width:0.264583px;stroke-linecap:butt;stroke-linejoin:miter;stroke-opacity:1"
       d="m -44.832113,81.449637 c -14.575338,2.198721 -29.291558,1.366014 -43.942738,1.778359 -18.963299,0.53371 -9.748237,0.551532 -19.953079,1.5322 -2.68627,0.258146 -5.20267,-0.534538 -7.86501,-0.534538"
       id="path909" />
    <path
       style="fill:none;stroke:#000000;stroke-width:0.264583px;stroke-linecap:butt;stroke-linejoin:miter;stroke-opacity:1"
       d="m 65.217809,-69.906641 c -0.777753,-1.229442 -1.832271,-2.322515 -2.333257,-3.688323 -3.89549,-10.620037 25.601173,-10.797707 25.844103,-9.078413 1.661043,11.755781 -1.980608,23.197182 -16.061883,18.870618 -6.18554,-1.90055 -9.364996,-4.30792 -14.294482,-7.542438"
       id="path911" />
    <path
       style="fill:none;stroke:#000000;stroke-width:0.264583px;stroke-linecap:butt;stroke-linejoin:miter;stroke-opacity:1"
       d="m 76.483064,-25.837234 c -3.224832,-3.662979 -5.602846,-5.434351 -0.988428,-8.76417 6.926773,-4.998439 3.707196,-2.795359 12.359518,-5.749165 2.520968,-0.860629 6.905651,-3.139961 9.880751,-2.661634 1.984147,0.319002 0.881927,10.495917 0.457673,12.054305 -3.243212,11.913101 -15.83282,3.928491 -22.713341,1.170167"
       id="path913" />
    <path
       style="fill:none;stroke:#000000;stroke-width:0.264583px;stroke-linecap:butt;stroke-linejoin:miter;stroke-opacity:1"
       d="m 83.519768,21.50089 c 0,-0.229395 -0.03178,-8.521468 0.08626,-9.014 C 86.008543,2.4624433 104.37742,1.3286411 102.16834,13.370491 101.27893,18.218763 97.901267,23.0764 93.552031,25.543228 87.593429,28.922866 75.71591,27.629342 73.66603,20.230757"
       id="path915" />
    <path
       style="fill:none;stroke:#000000;stroke-width:0.264583px;stroke-linecap:butt;stroke-linejoin:miter;stroke-opacity:1"
       d="m 80.67233,73.743435 c 0.442299,-3.82465 2.664339,-4.297709 6.296102,-5.58987 1.022803,-0.363905 8.894453,-3.179572 10.333725,-2.263487 1.073132,0.683035 3.523983,3.878898 4.211713,5.052804 3.49432,5.964539 2.36079,7.407089 0.0321,13.345564 -0.50501,1.287844 -0.4762,2.807147 -1.2403,3.960284 -3.371611,5.088225 -10.598665,3.116151 -14.49076,0.223419 -4.171431,-3.100342 -6.991694,-7.954571 -9.795533,-12.213209"
       id="path917" />
    <path
       style="fill:none;stroke:#000000;stroke-width:0.264583px;stroke-linecap:butt;stroke-linejoin:miter;stroke-opacity:1"
       d="m 87.764108,119.17004 c 4.817645,-3.60215 0.350176,-0.72012 6.117574,-3.09246 1.304026,-0.53639 2.421652,-1.53395 3.787712,-1.88335 0.193632,-0.0495 5.485956,-0.22681 5.713796,0 3.78986,3.77273 9.93555,23.06412 2.02527,25.17834 -1.49783,0.40034 -6.848212,-0.54638 -7.575546,-0.65417 -6.322689,-0.93703 -13.9047,-1.20512 -13.072065,-9.78741 0.415819,-4.28599 -0.08268,-3.36035 1.437095,-5.29388"
       id="path919" />
    <path
       style="fill:none;stroke:#000000;stroke-width:0.264583px;stroke-linecap:butt;stroke-linejoin:miter;stroke-opacity:1"
       d="m 94.052511,179.2142 c -3.416163,-1.75133 -7.962511,-5.2547 -5.665904,-10.00607 0.723217,-1.49623 8.30512,-4.82499 9.377531,-5.29103 2.606292,-1.13262 16.548412,-8.18711 18.655752,-3.00926 5.72123,14.05733 -5.68728,26.09092 -19.938986,20.22769 -2.583087,-1.0627 -4.354931,-4.18456 -3.064333,-6.76575"
       id="path921" />
    <path
       style="fill:none;stroke:#000000;stroke-width:0.264583px;stroke-linecap:butt;stroke-linejoin:miter;stroke-opacity:1"
       d="m 267.91028,-8.1481807 c 1.58681,-6.3281333 0.15409,-4.7170913 7.32499,-9.0292043 2.45724,-1.477616 5.17017,-2.485614 7.69379,-3.846746 1.05463,-0.568821 1.90389,-1.523093 3.02858,-1.936448 7.46318,-2.742928 10.78529,4.208473 13.08891,10.118787 0.37986,0.974623 1.79999,3.353325 1.2912,4.8509815 -0.50734,1.4932548 -1.81727,2.5781936 -2.74514,3.8534345 -6.37664,8.7638918 -14.03537,9.5020816 -22.25214,2.3964537 -9.17522,-7.9344474 0.87619,-0.880339 -7.43019,-6.4072584 z"
       id="path923" />
    <path
       style="fill:none;stroke:#000000;stroke-width:0.264583px;stroke-linecap:butt;stroke-linejoin:miter;stroke-opacity:1"
       d="m 285.21665,46.156438 c -0.5457,-3.116551 -4.13957,-13.994805 0.73824,-16.146251 3.82659,-1.687777 8.35279,-0.542385 12.53506,-0.542385 1.29185,0 2.58368,0 3.87554,0 0.53453,0 1.28397,-0.42844 1.60361,0 3.51218,4.707696 7.92821,12.243736 6.70131,18.709309 -1.5217,8.019171 -24.86046,6.161561 -29.72982,5.188817 -1.88712,-0.376983 -3.52272,-1.550423 -5.28418,-2.325377 -0.4054,-0.178353 -1.2196,-0.09166 -1.21642,-0.534538 0.007,-0.977276 1.25695,-1.7853 1.9736,-2.318203"
       id="path925" />
    <path
       style="fill:none;stroke:#000000;stroke-width:0.264583px;stroke-linecap:butt;stroke-linejoin:miter;stroke-opacity:1"
       d="m 294.75091,108.49257 c -3.38889,-6.73776 1.26188,-13.917304 5.55707,-18.959693 0.75118,-0.881867 1.30768,-2.11931 2.39538,-2.517921 1.40068,-0.51331 2.98786,-0.113471 4.47532,0 3.80196,0.290037 8.30429,1.35604 10.92517,4.461693 2.19703,2.603399 3.46962,10.772581 2.46521,13.880791 -0.47641,1.47427 -1.6492,2.65136 -2.72857,3.76285 -4.26868,4.39567 -12.03024,10.55325 -17.9654,12.11189 -2.4803,0.65135 -5.14053,0.24478 -7.69326,0 -3.50919,-0.33651 -7.23807,-0.24615 -10.43212,-1.73807 -2.07217,-0.9679 -7.84715,-7.94216 -6.36958,-10.92428"
       id="path927" />
    <path
       style="fill:none;stroke:#000000;stroke-width:0.264583px;stroke-linecap:butt;stroke-linejoin:miter;stroke-opacity:1"
       d="m 91.856935,-75.451495 c 14.760555,9.541523 31.194155,15.611051 47.234405,22.517938 7.1005,3.057456 5.04353,3.274351 12.82437,5.748496 4.27716,1.360048 8.68358,2.278512 12.99128,3.538482 1.77829,0.520137 3.46298,1.344456 5.259,1.799585 12.18902,3.088798 26.5605,5.524838 39.16047,9.124828 3.0722,0.877774 6.06379,2.382644 9.16364,3.371228 3.92086,1.250421 7.86936,2.060181 11.70935,3.628546 9.81183,4.007436 2.10905,1.194124 10.86187,5.705905 9.96855,5.138445 20.84282,8.135659 31.38421,11.7502341 4.89,1.676749 9.40218,4.4251671 14.70282,4.4251671"
       id="path929" />
    <path
       style="fill:none;stroke:#000000;stroke-width:0.264583px;stroke-linecap:butt;stroke-linejoin:miter;stroke-opacity:1"
       d="m 91.856935,-75.451493 c 14.677025,10.682835 27.211405,23.939622 40.412895,36.329265 5.18683,4.867855 10.57027,9.532795 15.58033,14.582403 13.27757,13.382383 25.01597,28.3311866 38.28388,41.724877 14.72628,14.865879 31.27406,28.309144 48.89048,39.611795 5.41577,3.474736 20.96201,11.733789 27.051,13.414584 3.03131,0.83676 6.26804,0.523589 9.39555,0.851953 0.82793,0.08693 5.77953,1.157763 6.43652,0.584962 0.6237,-0.543796 -0.27361,-4.54247 -0.69795,-6.008818 -0.96501,-3.334686 -2.57037,-7.058985 -4.50363,-9.956098 -1.20089,-1.799625 -3.02395,-1.184172 -4.56485,-3.771186 -0.39336,-0.660384 -0.74957,-3.751074 -0.12087,-3.791479 2.7921,-0.179424 5.59554,0.0447 8.3933,0.06705"
       id="path931" />
    <path
       style="fill:none;stroke:#000000;stroke-width:0.264583px;stroke-linecap:butt;stroke-linejoin:miter;stroke-opacity:1"
       d="m 91.856935,-75.451493 c 10.875075,21.032446 26.246375,39.514579 41.020915,57.874378 16.77428,20.8448107 34.65806,42.878438 54.52298,60.937452 9.38954,8.535945 19.83454,15.83708 29.93419,23.519717 7.67364,5.837216 15.44471,11.552838 23.37708,17.033295 3.44638,2.381099 7.41563,3.953193 10.81201,6.405089 5.44009,3.927271 0.41868,0.863486 6.25865,4.941287 1.27321,0.889029 3.38352,1.912996 4.69079,2.970112 0.41651,0.336809 0.59356,0.953148 1.06908,1.199745 0.24481,0.126952 2.71662,0.202827 3.25526,0.534538 3.99635,2.46107 5.43274,4.61079 8.58224,8.60571"
       id="path933" />
    <path
       style="fill:none;stroke:#000000;stroke-width:0.264583px;stroke-linecap:butt;stroke-linejoin:miter;stroke-opacity:1"
       d="M 105.77139,12.951185 C 159.5697,5.3666268 213.00804,-4.3256281 266.23634,-15.13629 c 10.26888,-2.085607 20.59509,-3.922942 30.78049,-6.384078 33.56816,-10.492413 6.41834,-2.649415 17.71914,-5.176749 0.15523,-0.03472 -0.32004,-0.02429 -0.47725,0 -3.16976,0.489707 -6.37172,0.823865 -9.49786,1.541091 -0.46566,0.106837 -16.37207,4.94952 -17.20561,5.199864 -1.40248,0.42122 -2.78913,0.904483 -4.21484,1.238715 -1.07117,0.251116 -1.10609,-0.267939 -1.56604,0.292685 -0.59111,0.720489 -2.92259,1.200058 -2.92259,2.004913"
       id="path935" />
    <path
       style="fill:none;stroke:#000000;stroke-width:0.264583px;stroke-linecap:butt;stroke-linejoin:miter;stroke-opacity:1"
       d="m 104.01039,77.520005 c -0.71272,0 -2.8236,0.195295 -2.13816,0 21.43426,-6.10698 -9.074591,8.497909 33.14991,-15.307444 11.12774,-6.273605 21.67844,-13.6056 33.14142,-19.243405 12.19377,-5.997234 48.4982,-19.174278 62.62067,-24.467642 4.84684,-1.816685 14.85757,-5.166408 20.91671,-8.315338 0.185,-0.09614 -1.6458,0.541203 -2.19584,-0.5345391 -1.60003,-3.129317 10.21488,-8.3124034 10.90272,-8.76655129 2.71568,-1.79303802 6.81468,-5.03454091 9.26387,-7.23112181 0.95837,-0.8595249 1.81978,-1.8213922 2.73116,-2.7305897 0.54555,-0.5442397 2.3943,-1.7856751 1.63963,-1.6297171 -2.16895,0.448244 -4.08813,1.7054414 -6.1322,2.5581623"
       id="path937" />
    <path
       style="fill:none;stroke:#000000;stroke-width:0.264583px;stroke-linecap:butt;stroke-linejoin:miter;stroke-opacity:1"
       d="m -115.98584,-43.925217 c 2.17375,-2.144731 5.1129,-2.610109 7.57568,-4.148502 1.4706,-0.918615 4.66617,-2.986252 6.03732,-4.058913 1.17852,-0.921964 1.92314,-2.075809 3.166646,-2.919785 3.092005,-2.098551 7.104639,-3.251716 10.542008,-4.456716 2.258401,-0.791702 4.733078,-2.479005 7.059022,-2.99856 3.498601,-0.781494 7.291004,-1.157504 10.859913,-1.603615 2.990109,-0.373767 5.822349,-1.778458 8.803581,-2.294599 9.437164,-1.633853 18.8888,-2.725518 28.241175,-4.885833 2.209626,-0.510403 4.502822,-1.396011 6.656422,-1.760448 5.531041,-0.935979 11.357316,-1.365564 16.947471,-1.939972 3.0746911,-0.315934 6.0962108,-0.214813 9.18673718,-0.584888 2.72134702,-0.325869 5.90213052,0.654762 8.55262472,0 0.406618,-0.100449 0.6613448,-0.564425 1.069078,-0.660247 1.9789761,-0.465074 8.3918321,-0.288565 10.2656031,0 4.081675,0.628589 8.163829,1.229691 12.130227,1.863596 2.489496,0.397869 4.60964,2.071338 7.234677,2.682636 0.971846,0.226317 10.345602,1.94922 10.574895,2.128542 0.109765,0.08584 -0.129333,0.36617 0,0.418041 3.003378,1.204553 6.324463,-1.381776 9.45505,-2.200717"
       id="path939" />
    <path
       style="fill:none;stroke:#000000;stroke-width:0.264583px;stroke-linecap:butt;stroke-linejoin:miter;stroke-opacity:1"
       d="m -44.069716,-86.088306 c 3.473682,1.157282 6.866538,2.717122 9.983194,4.580294 1.546966,0.924793 10.752991,7.810773 10.222146,8.601628 -0.818315,1.219126 -6.516908,1.838042 -7.983633,2.303119 -1.524117,0.483277 -2.909253,1.3424 -4.424823,1.851842 -4.635463,1.558153 -1.17692,-0.359026 -5.740553,1.310003 -0.721427,0.263842 -1.294511,0.946734 -2.138157,1.192453 -2.172181,0.632661 -4.55531,1.019545 -6.685523,1.729616 -1.55567,0.518556 -0.941281,0.832111 -2.6924,1.729896 -2.461593,1.262036 -3.979735,1.202372 -5.936961,3.159566"
       id="path941" />
    <path
       style="fill:none;stroke:#000000;stroke-width:0.264583px;stroke-linecap:butt;stroke-linejoin:miter;stroke-opacity:1"
       d="m 15.073714,-74.647829 c 1.417694,0.855626 3.067023,1.411362 4.253083,2.566874 3.880074,3.780147 6.542021,9.250365 9.736285,13.52296 3.839988,5.136306 10.0199,13.717219 15.314361,17.639868 2.257036,1.672233 5.715132,2.578224 8.191523,3.794107 1.372138,0.673705 7.284408,3.635494 8.953138,3.635494"
       id="path943" />
    <path
       style="fill:none;stroke:#000000;stroke-width:0.264583px;stroke-linecap:butt;stroke-linejoin:miter;stroke-opacity:1"
       d="m 15.073714,-74.647829 c 6.35597,13.769361 8.842325,28.79658 11.110608,43.683682 1.97874,12.986791 -0.603873,2.154356 2.306765,14.39099 0.192217,0.808101 2.755358,13.4331193 4.221372,14.8991336 5.861946,5.8619468 11.402657,9.1911578 19.242492,12.0644034 2.698152,0.988854 5.542094,1.596525 8.175471,2.829462 2.732035,1.279127 0.662318,0.902399 3.464716,2.278267 0.520285,1.539421 1.658218,0.199049 2.409341,0.534539 2.188829,0.977643 6.806046,3.722509 7.66155,4.198109"
       id="path945" />
    <text
       xml:space="preserve"
       style="font-style:normal;font-weight:normal;font-size:10.5833px;line-height:1.25;font-family:sans-serif;fill:#000000;fill-opacity:1;stroke:none;stroke-width:0.264583"
       x="-163.63812"
       y="192.93257"
       id="text955"><tspan
         id="tspan953"
         x="-163.63812"
         y="192.93257"
         style="stroke-width:0.264583"
         sodipodi:role="line"></tspan></text>
    <text
       xml:space="preserve"
       style="font-style:normal;font-weight:normal;font-size:10.5833px;line-height:1.25;font-family:sans-serif;fill:#000000;fill-opacity:1;stroke:none;stroke-width:0.264583"
       x="-55.428802"
       y="226.70677"
       id="text965"><tspan
         sodipodi:role="line"
         id="tspan963"
         x="-55.428802"
         y="226.70677"
         style="stroke-width:0.264583">AGG</tspan></text>
    <path
       style="fill:none;stroke:#000000;stroke-width:0.264583px;stroke-linecap:butt;stroke-linejoin:miter;stroke-opacity:1"
       d="m -313.03944,-10.417003 c -0.6182,4.4299193 2.48825,7.6932795 3.57963,11.8629076 2.82035,10.7752144 6.2616,19.9784064 12.28643,29.4080334 2.56939,4.021378 5.8883,7.398004 8.81605,11.11803 3.06959,3.900259 5.73466,8.042468 9.26602,11.559275 4.14108,4.123989 -0.90336,-1.074071 3.37336,4.071702 2.91312,3.505081 6.70113,6.707277 9.91971,9.936376 1.32893,1.33327 3.01126,2.283783 4.32232,3.634632 1.00318,1.033626 1.7911,2.256316 2.68666,3.384473 1.46644,1.764967 2.79642,3.652867 4.39931,5.294903 5.49334,5.627497 3.09121,1.689346 7.73215,6.896512 0.99161,1.112592 1.69295,2.463067 2.6864,3.574013 2.82156,3.155252 5.99699,6.040355 8.78531,9.222721 5.60074,6.392235 -0.86164,0.700875 6.85961,7.901945 4.09859,3.82245 8.63254,7.04035 12.83664,10.69596 1.81447,1.57774 3.31862,3.486 5.09639,5.10498 0.51441,0.46845 8.26,6.64725 8.98022,7.35307 5.67763,5.5641 10.79527,11.84623 16.71257,17.0586 2.42521,2.13629 4.00971,4.98327 6.4634,7.13546 6.39728,5.61121 12.64553,11.48849 19.40543,16.7281 10.47145,8.11644 21.97291,14.82505 33.95863,20.41 8.15483,3.79988 16.12386,7.97156 24.18397,11.84697 1.649009,-0.0598 1.991507,1.64918 3.109623,2.28513 2.762162,1.57104 6.432976,2.84228 9.459227,3.80106 0.952865,0.30188 2.65508,0.42969 3.426349,1.06611 0.136659,0.11276 -0.123495,0.40448 0,0.53153 0.361587,0.372 0.556548,-0.27803 0.902816,0 1.354982,1.08799 9.212072,6.49145 10.801318,5.85752 0.461399,-0.18405 -0.441248,-0.89201 -0.705106,-1.31289 -0.434388,-0.69288 0,-3.09387 0,-3.94676"
       id="path967" />
    <path
       style="fill:none;stroke:#000000;stroke-width:0.264583px;stroke-linecap:butt;stroke-linejoin:miter;stroke-opacity:1"
       d="m -73.695001,212.06336 c -4.180874,6.78035 -7.048071,6.00449 -13.766733,6.00449 -0.534538,0 -1.178627,-0.32421 -1.603616,0 -0.561557,0.42841 -0.740151,0.92047 -1.922174,0.92047"
       id="path969" />
    <path
       style="fill:none;stroke:#000000;stroke-width:0.264583px;stroke-linecap:butt;stroke-linejoin:miter;stroke-opacity:1"
       d="m -73.695001,212.06336 c -2.477857,0.11504 -4.989118,0.76662 -7.433566,0.34511 -1.046573,-0.18046 -0.49125,-2.89452 -0.660474,-3.34442 -0.722456,-1.92071 -2.6591,-3.47202 -3.344524,-5.52829 -0.706602,-2.11981 -0.905412,-3.77933 -1.603616,-5.89951"
       id="path971" />
    <path
       style="fill:none;stroke:#000000;stroke-width:0.264583px;stroke-linecap:butt;stroke-linejoin:miter;stroke-opacity:1"
       d="m -121.32131,100.77366 c 4.49268,2.53863 6.38562,7.46014 9.72297,11.16356 4.86349,5.39696 4.78414,4.08651 10.74011,10.15481 1.835717,1.87033 3.079891,4.24753 4.778228,6.24344 4.38858,5.15752 9.022424,10.16079 13.180121,15.51348 2.98468,3.84252 5.118171,8.4323 8.23981,12.14298 3.257902,3.87265 6.914943,7.39114 10.372616,11.08653 2.803324,2.99605 6.478876,5.40538 9.046578,8.60926 1.637691,2.04345 2.333585,4.64961 3.946271,6.70771 1.25503,1.60167 3.208448,2.9087 4.463322,4.526 1.689367,2.17728 1.982931,5.06867 2.823295,7.5948 0.8993,2.70329 3.007304,5.22086 3.007304,7.70925 0,0.49442 -0.08401,-0.99603 0,-1.48326 0.347313,-2.0143 0.789623,-2.85077 1.760741,-4.74423 0.429655,-0.83773 1.037527,-1.58751 1.379284,-2.46477 0.357037,-0.91648 0.479224,-3.08481 1.069078,-4.07746 1.184936,-1.99411 1.069078,-0.30204 1.069078,-1.56062"
       id="path973" />
    <path
       style="fill:none;stroke:#000000;stroke-width:0.264583px;stroke-linecap:butt;stroke-linejoin:miter;stroke-opacity:1"
       d="m -43.50999,202.57115 c -1.626759,-0.8197 -3.31451,-1.52818 -4.88028,-2.4591 -1.408789,-0.83759 -2.542754,-2.12087 -4.019351,-2.83213 -2.86131,-1.37827 -6.559203,-1.60761 -9.50908,-2.86881 -2.259087,-0.96586 -3.970848,-3.87244 -6.805062,-3.87244"
       id="path975" />
    <path
       style="fill:none;stroke:#000000;stroke-width:0.264583px;stroke-linecap:butt;stroke-linejoin:miter;stroke-opacity:1"
       d="m -96.32861,21.014034 c -7.46474,-2.367222 -14.62686,-11.2105096 -19.36386,-17.3703824 -1.33727,-1.7389508 -5.03849,-5.0800945 -5.12823,-7.5814726 -0.031,-0.8627292 3.44316,1.3032509 5.5936,2.1479276 6.18283,2.42856221 6.71838,2.30526487 13.33842,2.30526487"
       id="path977" />
    <path
       style="fill:none;stroke:#000000;stroke-width:0.264583px;stroke-linecap:butt;stroke-linejoin:miter;stroke-opacity:1"
       d="m -122.17415,1.0436953 c 1.15684,5.5469334 -2.28405,10.2304957 -2.28405,15.6568657"
       id="path979" />
    <path
       style="fill:none;stroke:#000000;stroke-width:0.264583px;stroke-linecap:butt;stroke-linejoin:miter;stroke-opacity:1"
       d="m -15.837155,220.04813 c 0.25435,-1.17894 0.394039,-2.38859 0.763049,-3.53682 0.748883,-2.33024 1.921414,-4.41504 2.284189,-6.91961 0.620427,-4.28338 -0.990678,1.60764 0.534539,-3.7679 0.419367,-1.47804 1.311924,-2.77867 1.613405,-4.28607 0.203698,-1.01849 -0.251611,-2.20079 0,-3.20724 0.590817,-2.36326 1.4131419,-4.85564 2.147944,-7.26844 0.4686499,-1.53886 1.9731913,-1.93477 2.6824829,-3.23656 0.3093124,-0.5677 0.2628958,-1.27771 0.534539,-1.86437 0.9955474,-2.15003 2.586387,-3.94348 3.3640986,-6.25303 1.49856833,-4.45027 3.0026488,-9.87651 5.491162,-14.0142 1.2965671,-2.15582 3.0124548,-4.01614 4.2862307,-6.13385 1.5092417,-2.50919 -0.3175744,-0.72659 1.069078,-2.6727 0.5345316,-0.75019 1.3061988,-1.33135 1.7506938,-2.13815 0.510612,-1.91985 0.29536,-1.75441 1.195274,-3.21637 0.598065,-0.97159 1.550096,-1.69502 2.138156,-2.6727 0.292574,-0.48642 0.237198,-1.13622 0.544457,-1.6135 0.291702,-0.45311 0.879642,-0.65182 1.195144,-1.08869 5.381691,-7.452 10.898949,-14.82536 16.507938,-22.11306 1.493338,-1.94028 0.998194,-2.50227 2.154471,-4.92785 1.80943,-3.79573 5.980104,-7.65426 7.60935,-11.29383 0.282416,-0.63089 0.204798,-1.39608 0.53454,-2.00358 1.050407,-1.93522 3.508627,-2.74694 4.964975,-4.15135 1.696048,-1.63557 2.798639,-4.294864 4.59004,-5.878757 0.835519,-0.738738 1.970156,-1.062567 2.864535,-1.728835 1.387782,-1.033831 2.420255,-2.90353 3.40338,-3.924803 0.206034,-0.214032 1.612681,-0.199872 1.888242,-0.477282 1.063913,-1.071052 2.096018,-2.279311 3.422435,-3.373887"
       id="path981" />
    <path
       style="fill:none;stroke:#000000;stroke-width:0.264583px;stroke-linecap:butt;stroke-linejoin:miter;stroke-opacity:1"
       d="m 29.222295,134.61216 c 8.815551,0.34861 17.451607,0.0898 26.110456,-1.62672 2.56373,-0.50822 5.076674,-1.66928 7.593171,-2.14513 1.812073,-0.34266 11.658497,0.0231 12.833112,-1.03544"
       id="path987" />
    <path
       style="fill:none;stroke:#000000;stroke-width:0.264583px;stroke-linecap:butt;stroke-linejoin:miter;stroke-opacity:1"
       d="m 10.684256,154.74919 c 18.553797,9.39889 39.852771,5.87352 59.384469,11.18316 6.08938,1.65539 8.479901,2.86774 14.227664,5.8183 0.578019,0.29672 1.012963,0.86512 1.629849,1.06908 0.625071,0.5766 1.422488,-0.17817 2.099136,0 1.808234,0.47613 3.594131,1.03336 5.391195,1.55005"
       id="path989" />
    <path
       style="fill:none;stroke:#000000;stroke-width:0.264583px;stroke-linecap:butt;stroke-linejoin:miter;stroke-opacity:1"
       d="m 3.5779924,180.52745 c 0.5159952,0.38528 9.5683376,13.50889 4.5383619,13.50889"
       id="path991" />
    <path
       style="fill:#ffffff;stroke:#000000;stroke-width:0.264583px;stroke-linecap:butt;stroke-linejoin:miter;stroke-opacity:1"
       d="m 3.5779924,180.52745 c -11.7095398,-2.15786 -10.7542226,-2.75004 -21.4452474,-2.26651 -2.847415,0.56949 -1.764153,0.53454 -3.207234,0.53454"
       id="path993" />
    <ellipse
       style="fill:#ffffff;fill-opacity:1;stroke-width:0.264583"
       id="path1004"
       cx="313.40988"
       cy="-26.927588"
       rx="16.393032"
       ry="5.4072199" />
    <path
       style="fill:none;stroke:#000000;stroke-width:0.264583px;stroke-linecap:butt;stroke-linejoin:miter;stroke-opacity:1"
       d="M 512.06884,13.912924 C 504.33491,12.352081 495.9664,4.8205929 499.3219,-4.1100589 c 0.81079,-2.1579586 3.17458,-3.3629311 4.51585,-5.237813 4.2349,-5.9197151 8.31271,-13.4497361 14.49711,-17.6847521 4.33644,-2.969549 8.7621,-2.362846 13.55526,-2.737988 2.82528,-0.221123 7.28938,-1.812491 10.27613,-0.682675 11.47887,4.342131 19.18787,20.317441 15.46002,32.2814321 -2.10515,6.7561774 -9.81241,16.7185899 -17.00387,19.2617649 -1.57294,0.55625 -3.38365,0.249194 -4.92646,0.88423 -0.93207,0.383647 -1.33239,1.573291 -2.21713,2.056141 -9.75548,5.323977 -22.66775,0.950787 -31.07473,-4.684032"
       id="path1006" />
    <path
       style="fill:none;stroke:#000000;stroke-width:0.264583px;stroke-linecap:butt;stroke-linejoin:miter;stroke-opacity:1"
       d="m 802.48979,32.083203 c -9.27317,-15.427384 -6.4806,-17.630507 8.66648,-31.74256122 9.17093,-8.54427788 21.36065,-17.11982378 33.65021,-20.36721378 11.20756,-2.961487 41.09857,0.316796 41.38273,15.5435874 0.17619,9.4408799 -6.59405,18.1747136 -12.51809,24.4310336 -4.16452,4.398089 -9.21817,7.890599 -14.19027,11.349611 -15.77086,10.971588 -15.093,11.546446 -31.48983,13.419968 -4.51747,0.51617 -9.16724,1.728391 -13.61739,0.795523 -5.02717,-1.053833 -9.28751,-4.390268 -13.93765,-6.571803 -5.22507,-2.451243 -10.34761,-5.137753 -15.68794,-7.326503 -13.0257,-4.273902 -7.44585,-2.055241 -16.91269,-6.202904"
       id="path1008" />
    <path
       style="fill:none;stroke:#000000;stroke-width:0.264583px;stroke-linecap:butt;stroke-linejoin:miter;stroke-opacity:1"
       d="m 817.61363,159.31443 c -5.51883,-16.02294 -7.07419,-24.04468 10.35013,-32.4293 15.26363,-7.3449 32.99272,-10.03257 49.32389,-12.64887 11.2277,-1.79872 11.29353,7.358 17.37863,16.92829 2.27269,3.57434 10.83186,13.55308 7.66926,19.09408 -0.51416,0.90088 -26.85362,31.19974 -27.55103,31.64431 -2.10018,1.33882 -4.74623,1.66977 -7.22614,1.90041 -15.0762,1.4021 -24.45975,-8.86905 -32.46335,-20.15345"
       id="path1010" />
    <path
       style="fill:none;stroke:#000000;stroke-width:0.264583px;stroke-linecap:butt;stroke-linejoin:miter;stroke-opacity:1"
       d="m 522.25379,148.61912 c -0.19013,-0.8001 -2.39165,-7.49543 -1.41838,-9.68197 2.07076,-4.65222 12.89071,-7.39459 16.95151,-7.9724 0.55372,-0.0788 20.80641,-2.45723 23.61618,-0.41888 2.37265,1.72123 4.45447,3.8466 6.35402,6.07903 13.98627,16.43718 24.48859,23.92228 15.65508,43.6175 -3.36923,7.51206 -8.15078,19.09512 -17.6466,21.36743 -11.64302,2.78612 -25.64392,-9.8422 -34.66701,-15.03056 -10.29395,-5.91912 -19.0936,-4.70113 -10.67027,-16.49017"
       id="path1012" />
    <path
       style="fill:none;stroke:#000000;stroke-width:0.264583px;stroke-linecap:butt;stroke-linejoin:miter;stroke-opacity:1"
       d="m 850.88036,-151.14786 c -0.39614,18.9146 7.59658,37.58165 9.97233,56.159587 1.14718,8.970949 0.88138,18.070978 0.97446,27.114502 0.0498,4.835261 0.16756,9.713712 -0.54615,14.496264 -0.96605,6.473333 -4.12192,11.11304 -3.25763,17.908527 0.34335,2.699731 1.97418,4.031678 1.92219,5.411774"
       id="path1014" />
    <path
       style="fill:none;stroke:#000000;stroke-width:0.264583px;stroke-linecap:butt;stroke-linejoin:miter;stroke-opacity:1"
       d="m 570.40885,-182.54972 c -0.008,19.87767 -1.95506,39.45494 -4.22735,59.19061 -0.81013,7.03616 -2.47486,13.98821 -2.79144,21.06377 -0.2509,5.607098 1.76036,31.676901 1.96538,38.284007 0.0897,2.892089 0.7139,14.948233 -1.59467,16.252677"
       id="path1016" />
    <path
       style="fill:none;stroke:#000000;stroke-width:0.264583px;stroke-linecap:butt;stroke-linejoin:miter;stroke-opacity:1"
       d="M 563.30288,11.37024 C 602.31093,13.760592 641.11872,6.7526963 679.86687,3.9841146 714.02894,1.5432091 748.4669,4.5719867 782.6653,5.8604295"
       id="path1018" />
    <path
       style="fill:none;stroke:#000000;stroke-width:0.264583px;stroke-linecap:butt;stroke-linejoin:miter;stroke-opacity:1"
       d="m 544.13012,58.826389 c -0.21069,15.783837 6.39392,30.23037 10.46329,45.131131 2.14934,7.87027 1.60494,18.10994 5.22753,25.51036"
       id="path1020" />
    <path
       style="fill:none;stroke:#000000;stroke-width:0.264583px;stroke-linecap:butt;stroke-linejoin:miter;stroke-opacity:1"
       d="m 603.1318,178.42006 c 25.86046,-6.50183 52.09823,-7.24284 78.55839,-9.13339 19.94067,-1.42475 39.75116,-4.42052 59.69886,-5.74299 6.61168,-0.43833 13.86621,1.4371 20.53649,0.77373 7.75951,-0.7717 12.62197,-1.67811 19.97874,-1.40094 4.92318,0.18548 14.63016,2.53512 17.97357,1.747 6.01022,-1.41675 11.82385,-3.56603 17.73576,-5.34904"
       id="path1022" />
    <path
       style="fill:none;stroke:#000000;stroke-width:0.264583px;stroke-linecap:butt;stroke-linejoin:miter;stroke-opacity:1"
       d="m 881.34779,202.46275 c 2.02644,16.00849 7.19235,31.89859 7.79314,48.09168 0.24397,6.57516 -0.49543,13.15004 -0.74313,19.72506 -0.24482,6.49769 -2.19245,15.46762 -0.82728,21.95783 1.03619,4.92617 1.05699,0.34091 0.94946,3.19473"
       id="path1024" />
    <path
       style="fill:none;stroke:#000000;stroke-width:0.264583px;stroke-linecap:butt;stroke-linejoin:miter;stroke-opacity:1"
       d="m 848.9752,66.198297 c 1.01055,13.041643 5.76487,25.45948 5.26838,38.637453"
       id="path1026" />
    <path
       style="fill:none;stroke:#000000;stroke-width:0.264583px;stroke-linecap:butt;stroke-linejoin:miter;stroke-opacity:1"
       d="m 567.91494,228.34876 c 4.96131,10.8345 1.82695,20.19897 1.99988,32.10658 0.18786,12.9357 1.05852,24.96678 0.57476,37.80693 -0.20238,5.37155 -1.73379,12.655 0.68812,17.41787"
       id="path1028" />
    <path
       style="fill:none;stroke:#000000;stroke-width:0.264583px;stroke-linecap:butt;stroke-linejoin:miter;stroke-opacity:1"
       d="m 325.4706,-14.647923 c 6.36378,-1.85185 9.03962,-8.088102 13.92033,-11.672523 2.79789,-2.054801 6.8307,-3.310159 9.45896,-5.565504 1.03085,-0.884577 4.41079,-10.16584 5.86888,-12.227166 2.65589,-3.754684 9.27741,-9.141764 9.4464,-13.627264"
       id="path1030" />
    <path
       style="fill:none;stroke:#000000;stroke-width:0.264583px;stroke-linecap:butt;stroke-linejoin:miter;stroke-opacity:1"
       d="m 335.30294,63.903383 c 18.22172,-22.178351 3.90913,-2.827279 13.79227,-20.135514 1.22645,-2.147869 3.25282,-3.829767 4.20894,-6.110848 2.98276,-7.116106 2.403,-24.649395 3.43525,-32.6748714 0.82534,-6.4169447 2.78392,-13.6805642 1.8338,-20.2774606 -0.53906,-3.742811 -1.16338,-1.870343 -3.02295,-4.951598 -1.16398,-1.928646 0.29549,-7.843078 0.38929,-10.333016"
       id="path1032" />
    <path
       style="fill:none;stroke:#000000;stroke-width:0.264583px;stroke-linecap:butt;stroke-linejoin:miter;stroke-opacity:1"
       d="m 335.04055,114.64008 c 2.97616,-6.48038 4.79605,-10.67918 8.85325,-17.551537 5.40488,-9.155173 3.20617,-1.937144 10.26289,-12.490947 2.91222,-4.355409 2.22062,-10.387287 3.00189,-15.189536 1.27703,-7.849952 2.02676,-14.560928 -0.22831,-22.336151 -1.26553,-4.363368 0.43339,-11.503276 0.60224,-15.984963"
       id="path1034" />
    <path
       style="fill:none;stroke:#000000;stroke-width:0.264583px;stroke-linecap:butt;stroke-linejoin:miter;stroke-opacity:1"
       d="m 364.16517,-57.74038 c 18.94893,-12.007146 41.1879,-15.492513 61.64524,-23.434823 2.64472,-1.026779 4.78367,-3.249718 7.527,-3.972843 12.83713,-3.383775 26.48521,-1.714907 39.47517,-4.045487 8.95464,-1.606582 18.21072,-3.75425 27.10709,-5.745194 2.7667,-0.61917 5.37096,-1.967614 8.18507,-2.312376 2.70682,-0.331621 5.45206,0.450397 8.17542,0.308012 4.90989,-0.256702 9.89144,-1.355495 14.83008,-1.718099 6.72682,-0.493892 13.6277,1.305042 20.3505,0.766718 1.8356,-0.146987 3.55796,-1.053288 5.39414,-1.192871 8.76679,-0.66643 17.7554,1.638289 26.52464,0.999331 9.73968,-0.709668 1.92707,-2.189278 12.51387,-0.893091 9.50811,1.164125 18.92006,3.021211 28.40997,4.325514 8.64045,1.187551 17.23478,2.71217 25.89253,3.766238 7.70098,0.937583 3.95885,-1.035335 12.32945,1.859505 4.98652,1.724509 9.91774,4.82772 14.97094,6.307815 6.36781,1.865148 12.56488,2.464229 18.71414,5.023622 10.75439,4.476092 -2.83051,-0.243551 8.49857,5.977054 1.41042,0.77443 3.22001,0.534972 4.66366,1.245542 4.49963,2.214764 10.94216,5.976869 15.1666,8.830712 0.83521,0.564235 1.16364,1.748772 2.05613,2.21714 1.57115,0.8245 3.49729,0.767709 5.09646,1.536393 2.12685,1.02231 7.90421,4.642064 9.71582,6.009431 10.1243,7.641651 19.57458,14.336802 30.92349,19.755559 4.30112,2.053658 8.33022,4.667051 12.75551,6.613194 1.11352,0.489701 6.75373,1.497714 7.6341,2.446914 0.72996,0.787047 0.45276,1.983235 2.01546,2.04211"
       id="path1036" />
    <path
       style="fill:none;stroke:#000000;stroke-width:0.264583px;stroke-linecap:butt;stroke-linejoin:miter;stroke-opacity:1"
       d="m 787.43193,-55.42867 c 2.1242,2.782316 3.90969,2.056796 5.95508,6.393714 2.15918,4.578207 1.68825,10.749021 2.87917,15.693617 0.47752,1.982566 2.17223,3.784701 1.92085,5.808409 -0.30271,2.436867 -2.30056,4.339046 -3.45083,6.50857 -10.50672,1.069155 -21.05618,0.189132 -31.5769,-0.207242"
       id="path1038" />
    <path
       style="fill:none;stroke:#000000;stroke-width:0.264583px;stroke-linecap:butt;stroke-linejoin:miter;stroke-opacity:1"
       d="m 1184.8721,182.96252 c -5.7629,-0.21712 -9.7152,0.0582 -15.2454,-1.76149 -6.8823,-2.26461 -6.7898,-9.67535 0.8033,-11.01366 6.2726,-1.10555 16.4711,0.56042 21.3185,2.94286 2.328,1.14417 -5.1762,-0.19501 -11.0499,-0.41631 -7.4929,-0.28229 -14.9857,-0.56459 -22.4785,-0.84689"
       id="path1040" />
    <path
       style="fill:none;stroke:#000000;stroke-width:0.264583px;stroke-linecap:butt;stroke-linejoin:miter;stroke-opacity:1"
       d="m 1235.4347,192.12742 c 6.3279,-8.14043 4.0948,-8.20431 16.5682,-9.04957 5.2196,-0.35371 10.4527,0.67753 15.6836,0.59089 3.3655,-0.0558 6.7341,-1.61458 10.0466,-1.0171 6.7531,1.21806 10.8899,9.40348 9.3532,9.94239 -6.6114,2.31863 -33.3314,0.59544 -41.2988,-0.46652 -9.5244,-1.26948 -3.0481,-2.93782 -10.3528,-9e-5 z"
       id="path1042" />
    <path
       style="fill:none;stroke:#000000;stroke-width:0.264583px;stroke-linecap:butt;stroke-linejoin:miter;stroke-opacity:1"
       d="m 1337.1303,197.9373 c 2.2774,-0.72491 4.5086,-1.61577 6.8323,-2.17472 5.2677,-1.26707 27.8009,-5.68271 32.5957,-3.13063 2.1674,1.15362 10.8885,9.12971 7.4503,12.26092 -8.4513,7.69684 -52.1926,3.56038 -64.7646,1.2498"
       id="path1044" />
    <path
       style="fill:none;stroke:#000000;stroke-width:0.264583px;stroke-linecap:butt;stroke-linejoin:miter;stroke-opacity:1"
       d="m 1451.2453,222.50948 c -8.1461,-9.16423 -5.1059,-9.40248 4.4636,-13.70811 6.3596,-2.86136 16.3909,-8.90561 24.1775,-6.02756 6.7,2.47644 12.5373,23.79013 5.2653,28.39592 -5.9063,3.74088 -16.5345,2.66454 -22.2551,1.90377 -20.7186,-2.75531 -42.6051,-9.59512 -63.4713,-10.38126"
       id="path1046" />
    <path
       style="fill:none;stroke:#000000;stroke-width:0.264583px;stroke-linecap:butt;stroke-linejoin:miter;stroke-opacity:1"
       d="m 960.4821,71.821695 c 43.7922,6.383867 86.0892,-6.796936 129.2374,-10.88622 5.9594,-0.564788 28.6196,-0.695325 35.7125,-0.428093 -9.5192,-1.349132 -8.2696,-1.197359 -13.391,-7.699174 -3.2743,-4.15684 -6.6175,-7.858027 -9.2417,-12.611376 -3.2826,-5.945946 -2.9317,-13.56433 -9.8273,-17.352924"
       id="path1048" />
    <path
       style="fill:none;stroke:#000000;stroke-width:0.264583px;stroke-linecap:butt;stroke-linejoin:miter;stroke-opacity:1"
       d="m 1125.432,60.507382 c -0.6285,5.199261 -0.2695,10.616237 -1.8855,15.597785 -4.4547,13.732304 -23.7415,32.879123 -35.933,39.911963 -9.7553,5.62746 -30.2357,12.04584 -41.4689,15.68013 -3.8505,1.24573 -7.6653,2.62846 -11.5902,3.61479 -2.7832,0.69943 -2.3872,-1.22192 -2.4663,0.87793"
       id="path1050" />
    <path
       style="fill:none;stroke:#000000;stroke-width:0.264583px;stroke-linecap:butt;stroke-linejoin:miter;stroke-opacity:1"
       d="m 1604.6628,89.356622 c 43.4737,10.031164 89.7573,8.272224 133.9037,3.878154 4.2143,-0.419465 8.4144,-1.055597 12.6461,-1.226579 3.7668,-0.152202 7.783,1.779272 11.3016,0.425794 0.2851,-0.109662 0.1171,-0.621623 0.034,-0.915675 -1.2843,-4.570384 -6.7474,-8.391957 -9.2048,-11.039743 -4.6722,-5.034211 -8.8477,-10.578711 -14.011,-15.107853 -6.6872,-5.865953 -16.9995,-8.874564 -23.0994,-15.452164"
       id="path1052" />
    <path
       style="fill:none;stroke:#000000;stroke-width:0.264583px;stroke-linecap:butt;stroke-linejoin:miter;stroke-opacity:1"
       d="m 1766.5143,104.19893 c -8.6776,7.62302 -5.0572,5.14202 -17.1913,11.93131 -18.4074,10.29934 -35.3472,21.54736 -51.9258,34.70039 -4.9846,3.95464 -9.5168,8.47078 -14.6082,12.28695 -4.9006,3.67313 -14.0549,6.74711 -9.6159,6.91435"
       id="path1054" />
    <path
       style="fill:none;stroke:#000000;stroke-width:0.264583px;stroke-linecap:butt;stroke-linejoin:miter;stroke-opacity:1"
       d="m 1911.9408,-96.536347 c -16.5169,-15.710883 5.8987,-22.226173 19.2797,-26.931323 7.6609,-2.69378 28.3436,-9.47037 35.8378,-9.20953 6.7871,0.23622 9.2365,4.4859 14.7038,8.8089 3.4079,2.69452 7.3168,4.83658 10.2743,8.01885 4.908,5.28092 10.5945,24.729041 8.1354,31.159901 -5.136,13.431289 -39.0239,15.576388 -50.2158,12.392405 -12.8248,-3.648477 -25.8297,-10.778161 -37.6414,-16.703619 -5.7661,-2.892621 -11.3794,-6.106922 -17.2796,-8.715242 -6.9536,-3.074005 -12.0531,-1.58971 -14.2925,-8.001245"
       id="path1056" />
    <path
       style="fill:none;stroke:#000000;stroke-width:0.264583px;stroke-linecap:butt;stroke-linejoin:miter;stroke-opacity:1"
       d="m 1916.5683,21.270164 c -15.2294,-18.6928713 -15.8468,-30.7506512 13.7633,-30.7001994 30.9508,0.052736 23.8443,1.1411188 56.7544,6.1340118 6.0529,0.9183011 12.137,1.6269165 18.2232,2.2891694 1.7776,0.19342051 3.8975,-0.8262619 5.3604,0.20195514 5.1158,3.59579576 5.4042,10.11954536 7.3789,15.82687506 3.7805,10.926217 11.0327,24.407616 2.7356,35.323766 -13.0511,17.17091 -39.3876,18.558435 -58.7493,18.663549 -5.8922,0.03199 -22.9241,0.427125 -29.6335,-3.907279 -7.959,-5.141643 -11.4579,-21.391981 -13.3752,-30.10608"
       id="path1058" />
    <path
       style="fill:none;stroke:#000000;stroke-width:0.264583px;stroke-linecap:butt;stroke-linejoin:miter;stroke-opacity:1"
       d="m 1948.3533,355.05149 c -2.618,-18.99034 -7.015,-43.45138 11.3829,-56.15353 9.9211,-6.84966 34.1662,-13.7165 46.5072,-9.61604 5.3232,1.76869 9.9274,5.32249 14.3995,8.70852 2.5064,1.89767 4.954,4.16351 6.3327,6.98873 10.7153,21.95732 6.9006,40.58798 -1.7652,62.33224 -2.0817,5.22351 -11.969,28.33042 -19.9404,32.33864 -6.5648,3.30094 -14.3349,3.95192 -21.6829,3.97383 -14.4698,0.0431 -88.6777,-8.91598 -98.1908,-10.11841 -12.0934,-1.52857 -24.143,-3.38725 -36.2049,-5.14694 -12.8036,-1.86785 -12.604,2.23407 -12.4061,-3.01897"
       id="path1070" />
    <path
       style="fill:none;stroke:#000000;stroke-width:0.264583px;stroke-linecap:butt;stroke-linejoin:miter;stroke-opacity:1"
       d="m 1948.292,538.52505 c -31.4717,-36.766 -9.051,-68.41085 35.1311,-82.8829 17.8277,-5.83954 61.2468,2.86367 76.9141,7.03649 8.1424,2.16863 32.2991,9.92436 39.3778,20.08667 6.8472,9.83003 3.3457,23.84909 -2.3719,32.89543 -20.4582,32.36934 -46.5005,39.78751 -83.043,34.01018 -12.6431,-1.99885 -24.8423,-6.1953 -37.1771,-9.61523 -29.5134,-8.18285 -34.141,-9.90764 -58.2808,-17.81249"
       id="path1072" />
    <path
       style="fill:none;stroke:#000000;stroke-width:0.264583px;stroke-linecap:butt;stroke-linejoin:miter;stroke-opacity:1"
       d="m 1974.9877,663.05384 c -0.2825,-4.09093 -1.9943,-8.33578 -0.8474,-12.2728 1.7271,-5.92855 4.6856,-11.82719 9.12,-16.12453 5.6517,-5.47717 13.2043,-8.61166 20.175,-12.26547 17.0522,-8.93813 36.0484,-15.97089 55.6524,-11.37497 18.8064,4.40894 37.0486,11.00119 55.2812,17.37997 4.6587,1.62986 10.7985,2.31738 13.2555,6.59795 10.7398,18.71075 -6.6226,23.73529 -19.207,29.66862 -6.7554,3.18506 -13.7401,6.26177 -21.0979,7.54285 -9.1034,1.58499 -18.5092,1.86505 -27.7044,0.95414 -13.4183,-1.32924 -26.701,-4.14266 -39.7251,-7.63386 -15.6002,-4.18171 -31.049,-11.33115 -45.71,-18.29306"
       id="path1074" />
    <path
       style="fill:none;stroke:#000000;stroke-width:0.264583px;stroke-linecap:butt;stroke-linejoin:miter;stroke-opacity:1"
       d="m 2089.0958,-83.821026 c 10.6043,11.041663 23.1009,19.947618 33.9124,30.813587 8.5627,8.605893 16.0116,18.16522 25.1424,26.094912 1.7393,1.510501 4.7787,5.887097 7.0719,7.019942 10.0101,4.945058 -3.1835,-3.785152 6.7926,4.829558 5.6289,4.860754 12.9469,8.8447015 18.9824,13.2377262 5.7836,4.209698 10.9912,9.2228761 17.0267,13.0626688 1.0385,0.660671 2.5179,0.448373 3.4915,1.201381 0.716,0.553801 0.5914,1.76896 1.207,2.432625 1.5906,1.714852 8.9706,5.920818 9.8241,6.470658 5.5306,3.563127 10.2578,7.442608 15.2922,11.493254 4.8486,3.901191 10.8384,6.676366 16.1338,9.841169 9.4906,5.671963 17.9632,13.245698 27.8092,18.312289 1.9586,1.007887 4.2446,1.314476 6.1477,2.423628 0.991,0.577583 1.4233,1.83365 2.34,2.523111 4.2361,3.185864 10.6314,5.932255 14.1358,10.428465"
       id="path1076" />
    <path
       style="fill:none;stroke:#000000;stroke-width:0.264583px;stroke-linecap:butt;stroke-linejoin:miter;stroke-opacity:1"
       d="m 2413.5981,117.83363 c -3.4076,-5.92387 -8.6883,-11.61545 -9.6166,-18.730377 -3.8733,-29.687298 30.1901,-66.433437 49.6192,-80.96089 19.0631,-14.2537117 55.6262,-15.6328499 78.2186,-13.9992812 11.8112,0.8540215 27.297,0.6298033 34.9479,11.9842592 11.1639,16.568068 14.3658,47.732013 3.207,64.900396 -10.2718,15.803727 -38.2262,29.442303 -53.5746,34.496873 -23.2615,7.66048 -55.1611,9.0376 -78.997,5.23708 -17.8691,-2.84916 -56.8752,-10.5801 -68.7013,-30.335254"
       id="path1078" />
    <path
       style="fill:none;stroke:#000000;stroke-width:0.264583px;stroke-linecap:butt;stroke-linejoin:miter;stroke-opacity:1"
       d="m 2448.4966,202.30643 c 15.873,-30.49886 34.4327,-31.4452 67.3528,-25.67521 15.4336,2.7051 30.6598,6.49574 45.9122,10.08447 29.4841,6.93733 66.7464,15.47364 94.5336,28.36707 12.4756,5.78882 33.142,16.79881 37.156,33.23384 0.9517,3.89748 0.5699,9.30914 -2.6155,11.74855 -13.1098,10.04033 -54.8191,23.02277 -69.7272,25.60743 -31.65,5.48725 -104.4325,10.63956 -133.4263,-6.80254 -8.0062,-4.8164 -13.4397,-13.27415 -18.2138,-21.30565 -14.2747,-24.0144 -5.4742,-34.96975 -16.3003,-56.96651"
       id="path1080" />
    <path
       style="fill:none;stroke:#000000;stroke-width:0.264583px;stroke-linecap:butt;stroke-linejoin:miter;stroke-opacity:1"
       d="m 2493.2167,405.40865 c -4.9197,-3.51342 -9.3265,-12.00941 -6.6581,-18.56155 9.4354,-23.16848 48.1283,-32.35327 69.1058,-34.86697 13.4498,-1.61169 27.0891,-0.69258 40.6342,-0.54772 4.3729,0.0467 61.5746,-0.3915 66.1183,11.05411 12.6626,31.89758 7.7186,22.53583 7.8184,52.21179 0.011,3.10168 2.6657,33.78753 -0.5784,39.11592 -6.169,10.13269 -36.0854,4.38234 -37.8905,4.22293 -18.8588,-1.66542 -37.5854,-4.63206 -56.4344,-6.40553 -24.6193,-2.31643 -71.5169,-2.89423 -97.3494,-11.90173 -27.5318,-9.60001 -42.033,-22.86286 -64.0991,-39.59135"
       id="path1082" />
    <path
       style="fill:none;stroke:#000000;stroke-width:0.264583px;stroke-linecap:butt;stroke-linejoin:miter;stroke-opacity:1"
       d="m 2004.2198,70.381031 c 25.8739,0.974812 20.3559,0.45167 67.5317,10.223262 11.6445,2.411939 55.0917,14.093695 71.2104,20.013927 12.5702,4.6169 44.9378,20.30842 54.3958,24.49421 10.7553,4.76001 22.8632,9.91179 34.2761,13.53736 5.0085,1.59107 9.4019,2.28489 14.0976,4.91078 7.8471,4.38817 15.0542,9.85301 22.8558,14.32143 20.1525,10.68676 11.2456,5.72773 27.004,14.76568 7.6965,4.4142 15.7433,9.35789 24.0393,12.5322 20.3742,7.79582 19.9131,5.66941 41.2969,10.41044 4.8305,1.07096 9.2755,4.07071 14.2197,4.25698"
       id="path1084" />
    <path
       style="fill:none;stroke:#000000;stroke-width:0.264583px;stroke-linecap:butt;stroke-linejoin:miter;stroke-opacity:1"
       d="m 2064.3811,332.17688 c 23.2093,-51.60999 73.3062,-71.14423 121.8082,-92.07111 13.1733,-5.68378 26.9936,-10.0119 39.6048,-16.85265 8.53,-4.62691 75.918,-51.5584 80.2569,-54.90215 32.5675,-20.30005 55.6994,-51.52334 85.3453,-75.140792 10.9749,-8.743167 23.5557,-15.254415 35.3167,-22.907419 11.4028,-7.419908 6.6125,-7.403168 12.0277,-7.199148"
       id="path1086" />
    <path
       style="fill:none;stroke:#000000;stroke-width:0.264583px;stroke-linecap:butt;stroke-linejoin:miter;stroke-opacity:1"
       d="m 2118.476,480.72833 c 8.2056,-28.22921 -0.5631,-2.85962 74.5963,-17.47821 64.0808,-12.46381 115.6024,-24.12823 179.3537,-46.7346 24.0327,-8.5221 46.6733,-20.57432 69.6604,-31.61027 15.5771,-7.47845 46.1381,-17.38376 56.5255,-37.1279 1.7789,-3.38143 1.9422,-12.23034 2.1313,-17.24898"
       id="path1088" />
    <path
       style="fill:none;stroke:#000000;stroke-width:0.264583px;stroke-linecap:butt;stroke-linejoin:miter;stroke-opacity:1"
       d="m 2642.6429,42.055788 c 44.3064,-16.65322 85.5541,-46.8215677 123.7197,-74.293571 36.1056,-25.989147 56.6312,-42.16896 90.1349,-71.352077 9.2252,-8.03566 17.8032,-16.78921 26.9115,-24.95751 12.5984,-11.29856 26.3187,-21.32007 38.7271,-32.82723 15.8215,-14.6728 13.6131,-17.4313 34.8144,-24.39001"
       id="path1090" />
    <path
       style="fill:none;stroke:#000000;stroke-width:0.264583px;stroke-linecap:butt;stroke-linejoin:miter;stroke-opacity:1"
       d="m 3066.5658,-168.68795 c 1.8084,-2.54051 2.8805,-5.81946 5.4255,-7.62151 12.5399,-8.87894 52.564,-22.11557 60.1194,-24.01479 43.5642,-10.95061 92.3732,-15.92626 135.2283,0.73542 9.4202,3.66247 25.1476,14.2921 31.0703,24.17075 15.5927,26.00652 7.7134,62.07931 -14.5907,81.910698 -9.0816,8.074896 -20.7209,13.219118 -32.3006,16.905415 -27.6834,8.812665 -71.405,8.422841 -98.3205,4.59097 -62.1273,-8.84478 -113.9841,-29.537353 -158.8408,-73.908163 -4.7934,-4.74135 -7.6128,-11.12964 -11.4194,-16.69446"
       id="path1092" />
    <path
       style="fill:none;stroke:#000000;stroke-width:0.264583px;stroke-linecap:butt;stroke-linejoin:miter;stroke-opacity:1"
       d="m 3120.1188,121.48356 c -13.9089,-15.90663 -24.9878,-32.811309 -27.5858,-54.379901 -0.8535,-7.087257 -2.7117,-15.100197 0.6342,-21.406046 12.2296,-23.049466 44.5239,-32.135266 66.4412,-36.5711619 63.7616,-12.9048632 134.7546,-15.8672784 197.8906,3.0954849 33.9926,10.209601 -0.6258,54.328185 -7.5026,66.701096 -4.4648,8.03333 -10.4547,15.118578 -15.7003,22.665248 -4.281,6.15854 -7.4221,13.30478 -12.8786,18.45032 -15.6176,14.72681 -30.9454,10.74979 -51.8245,12.22961"
       id="path1094" />
    <path
       style="fill:none;stroke:#000000;stroke-width:0.264583px;stroke-linecap:butt;stroke-linejoin:miter;stroke-opacity:1"
       d="m 3142.7798,250.45696 c 8.9101,-23.60722 26.9235,-40.10978 49.6324,-50.09528 33.0192,-14.51913 65.9643,-2.63285 100.3713,6.07839 27.007,6.8377 44.4293,21.66364 57.65,45.78517 6.9808,12.73674 3.5825,15.32444 1.9669,29.90036 -1.8706,16.87706 -1.362,58.9896 -20.5742,68.16976 -15.0699,7.20085 -61.4503,-10.0058 -64.8325,-11.36565 -2.8755,-1.1562 -71.6269,-36.53933 -85.2966,-43.56425"
       id="path1096" />
    <path
       style="fill:none;stroke:#000000;stroke-width:0.264583px;stroke-linecap:butt;stroke-linejoin:miter;stroke-opacity:1"
       d="m 3158.2907,489.76533 c -4.1907,-13.93758 -9.4911,-23.47301 -2.7114,-38.70232 7.9068,-17.7618 26.9118,-23.18136 43.2985,-28.86551 12.2063,-4.2341 24.5182,-8.54718 37.2631,-10.6648 54.4238,-9.04253 149.7079,2.85387 180.136,56.07206 4.3921,7.68199 4.4257,17.85321 2.3122,26.44616 -7.4953,30.47587 -27.6206,93.50828 -70.2471,98.6694 -26.5943,3.22 -65.918,-22.3447 -82.9056,-32.67316 -36.0238,-21.90234 -32.5496,-19.61528 -50.9363,-39.88525"
       id="path1098" />
    <path
       style="fill:none;stroke:#000000;stroke-width:0.264583px;stroke-linecap:butt;stroke-linejoin:miter;stroke-opacity:1"
       d="m 2680.3712,228.91354 c 2.04,-19.80671 13.3456,-62.24502 31.4756,-73.29592 38.6382,-23.55132 22.5055,-3.42585 57.2064,-30.30431 39.7502,-30.789672 50.1875,-46.518344 86.0436,-83.920039 14.6645,-15.296831 29.7489,-30.186189 44.5037,-45.3961059 19.4508,-20.0509671 38.9427,-40.0650801 58.1183,-60.3793091 7.0589,-7.47781 9.7057,-9.162528 11.992,-17.280556 0.4527,-1.607836 0.3524,-3.444933 1.2526,-4.852038 2.2822,-3.567678 18.2872,-16.147442 22.4768,-18.048662"
       id="path1100" />
    <path
       style="fill:none;stroke:#000000;stroke-width:0.264583px;stroke-linecap:butt;stroke-linejoin:miter;stroke-opacity:1"
       d="m 2688.0277,264.615 c 68.1506,50.10788 153.6713,62.80584 234.21,80.77639 62.4051,13.92447 134.4205,28.07991 195.0413,48.00209 47.757,15.69455 76.7215,31.1696 116.5458,59.55717 7.7425,5.51895 14.4843,12.34372 21.2899,18.98333 3.4428,3.35854 3.959,7.91125 8.181,10.22482"
       id="path1102" />
    <path
       style="fill:none;stroke:#000000;stroke-width:0.264583px;stroke-linecap:butt;stroke-linejoin:miter;stroke-opacity:1"
       d="m 2642.0965,440.41882 c 5.2201,-1.70386 10.6599,-2.84316 15.6605,-5.11164 43.9664,-19.94424 59.6649,-31.945 105.0523,-59.10681 48.1745,-28.82979 96.2877,-57.76221 144.4797,-86.56261 20.2943,-12.12821 41.6121,-22.6409 61.0682,-36.07268 12.2949,-8.48798 23.0381,-19.07191 33.8082,-29.42647 8.6289,-8.2959 14.3785,-19.71086 24.2422,-26.49195 5.7742,-3.96957 13.2593,-4.55043 19.9781,-6.53978"
       id="path1104" />
    <path
       style="fill:none;stroke:#000000;stroke-width:0.264583px;stroke-linecap:butt;stroke-linejoin:miter;stroke-opacity:1"
       d="m 3572.0125,150.57254 c 68.5057,1.55872 136.6198,8.08693 205.0788,10.66616 12.6839,0.47787 25.3678,1.90828 38.0519,1.43362 7.9203,3.19876 13.7692,-4.07708 20.8706,-4.82003 11.4691,-1.19995 23.9924,5.80981 34.9708,2.97319 1.2858,-0.33228 -3.6235,-9.51707 -4.4868,-11.0721 -2.9578,-5.32826 -6.9917,-10.06334 -9.5211,-15.60789 -3.3448,-7.33216 -5.0347,-15.32188 -8.0063,-22.81313 -3.217,-8.10979 -7.5573,-15.758352 -10.5455,-23.955202 -4.9834,-13.670645 1.2745,-6.257584 -3.0996,-11.030699"
       id="path1106" />
    <path
       style="fill:none;stroke:#000000;stroke-width:0.264583px;stroke-linecap:butt;stroke-linejoin:miter;stroke-opacity:1"
       d="m 3868.7467,178.54239 c -34.9589,8.91559 -106.9485,13.39062 -130.2044,41.95817 -1.6158,1.98471 1.6156,5.36297 3.823,6.65804 6.2455,3.66437 13.5824,5.02566 20.3735,7.53849"
       id="path1108" />
    <path
       style="fill:none;stroke:#000000;stroke-width:0.264583px;stroke-linecap:butt;stroke-linejoin:miter;stroke-opacity:1"
       d="m 4212.0102,14.24589 c -14.2292,1.740452 -77.9187,5.405635 -82.8005,-7.8702787 -3.1343,-8.5233665 5.8311,-20.9871183 9.4295,-25.9328573 24.112,-33.140501 47.7176,-48.370113 89.6601,-47.773555 13.4946,0.19194 27.3021,0.549423 40.2545,4.34126 36.5874,10.710963 66.3938,42.778678 18.2176,62.96891399 -35.9722,15.07567701 -53.3164,7.17415541 -97.477,8.65026741 -47.749,1.5960526 -45.9041,4.1203046 -85.576,2.6256496"
       id="path1110" />
    <path
       style="fill:none;stroke:#000000;stroke-width:0.264583px;stroke-linecap:butt;stroke-linejoin:miter;stroke-opacity:1"
       d="m 4193.4182,413.21299 c -3.6941,-4.90249 -9.3927,-8.80607 -11.0823,-14.70753 -15.6588,-54.6967 -7.5996,-110.15646 55.0754,-126.96764 32.3482,-8.67668 71.8436,-3.58002 101.7963,9.80321 25.83,11.54102 61.2177,47.98497 75.573,71.05745 9.2151,14.81111 15.4842,31.42012 20.6801,48.07215 5.9626,19.10948 7.9544,41.70749 -5.2922,58.92641 -6.9959,9.09386 -32.6123,8.80097 -40.1733,8.42674 -55.114,-2.72793 -59.6477,-8.12273 -120.9381,-22.22383 -77.6571,-17.86657 -42.7451,-2.79675 -96.3409,-32.16453"
       id="path1112" />
    <path
       style="fill:none;stroke:#000000;stroke-width:0.264583px;stroke-linecap:butt;stroke-linejoin:miter;stroke-opacity:1"
       d="m 4259.6511,39.591488 c 17.7049,73.135122 43.3269,146.528582 40.4511,222.857312"
       id="path1114" />
    <path
       style="fill:none;stroke:#000000;stroke-width:0.264583px;stroke-linecap:butt;stroke-linejoin:miter;stroke-opacity:1"
       d="m 4732.0112,20.34457 c -0.2508,-5.934662 -1.792,-11.9556962 -0.7525,-17.8039864 8.2418,-46.3682726 63.794,-72.2646336 104.8814,-78.6758576 26.3287,-4.108275 53.244,-3.433194 79.887,-2.955552 2.4021,0.04306 80.4656,-4.569613 94.3864,14.930493 13.5106,18.925561 -7.6769,29.431138 -22.4222,36.681391 -36.1881,17.793512 -87.8707,34.0917943 -128.8772,32.5468621"
       id="path1116" />
    <path
       style="fill:none;stroke:#000000;stroke-width:0.264583px;stroke-linecap:butt;stroke-linejoin:miter;stroke-opacity:1"
       d="m 4320.7971,-7.7225984 c 83.8605,7.01050608 166.9891,2.6279837 250.9978,0.3786121 47.4522,-1.2705625 94.9349,-1.6591203 142.3596,-3.7143817 68.0577,-2.949425 130.7404,-10.118046 198.293,-7.572963"
       id="path1118" />
    <path
       style="fill:none;stroke:#000000;stroke-width:0.264583px;stroke-linecap:butt;stroke-linejoin:miter;stroke-opacity:1"
       d="m 4788.0687,415.14088 c -8.7749,-1.65204 -41.7607,3.5846 -45.6096,-4.61643 -6.803,-14.49448 -12.1272,-30.00245 -14.2478,-45.87293 -5.3531,-40.05857 4.4368,-95.2846 41.6856,-118.5069 46.0428,-28.70484 105.5367,-30.40026 157.5234,-36.8748"
       id="path1120" />
    <path
       style="fill:none;stroke:#000000;stroke-width:0.264583px;stroke-linecap:butt;stroke-linejoin:miter;stroke-opacity:1"
       d="m 4994.4556,294.20992 c 5.1422,17.85376 10.2892,43.46627 -5.3104,58.2953 -4.0135,3.81521 -32.0828,8.78109 -33.7764,9.13961"
       id="path1122" />
    <path
       style="fill:none;stroke:#000000;stroke-width:0.264583px;stroke-linecap:butt;stroke-linejoin:miter;stroke-opacity:1"
       d="m 4927.4203,209.26982 c 16.1189,16.00191 41.2504,14.40599 59.3511,26.25202 21.1621,13.8494 30.3199,45.88462 18.565,68.4458 -12.9276,24.81144 -22.4542,25.59236 -39.5693,49.21353 -10.9304,15.08541 -14.696,42.49148 -31.465,53.22883 -22.5721,14.4535 -47.9787,8.99501 -72.6789,9.47197 -44.6913,0.86297 1.2848,0.63942 -35.0314,5.30887 -13.3906,1.72175 -26.0636,-2.11773 -38.5231,-6.04996"
       id="path1124" />
    <path
       style="fill:none;stroke:#000000;stroke-width:0.264583px;stroke-linecap:butt;stroke-linejoin:miter;stroke-opacity:1"
       d="m 4490.0685,316.59748 c -1.9489,3.16224 -6.1068,6.58701 -2.3555,10.58558 4.487,4.78276 11.3003,4.19475 16.9772,5.57831 10.6016,2.58387 20.8561,6.74749 31.6455,8.37809 48.9641,7.39981 59.0613,5.55995 106.4681,1.07095 42.4219,-4.01698 20.597,-4.45762 40.54,-3.70625"
       id="path1126" />
    <path
       style="fill:none;stroke:#000000;stroke-width:0.264583px;stroke-linecap:butt;stroke-linejoin:miter;stroke-opacity:1"
       d="m 4884.6552,54.357277 c 12.0327,48.577843 25.8534,96.955853 36.1336,145.953843 1.9031,9.07137 2.4881,18.37385 4.0552,27.50929 0.2863,1.66854 1.2632,6.53022 1.496,4.8534 1.0742,-7.7354 0.7202,-15.60266 1.0803,-23.40399"
       id="path1128" />
    <path
       style="fill:none;stroke:#000000;stroke-width:0.264583px;stroke-linecap:butt;stroke-linejoin:miter;stroke-opacity:1"
       d="m 4222.2123,-250.47295 c 10.5651,43.15014 12.7114,41.69291 7.5568,100.28191 -1.0263,11.66721 -6.3656,22.54442 -9.3372,33.87351 -6.6378,25.308638 -1.4589,12.16771 -8.0565,27.334992"
       id="path1130" />
    <path
       style="fill:none;stroke:#000000;stroke-width:0.264583px;stroke-linecap:butt;stroke-linejoin:miter;stroke-opacity:1"
       d="m 3828.9931,-15.601954 c 68.5207,13.5077045 138.6768,17.281303 208.3847,19.9075923"
       id="path1132" />
    <path
       style="fill:none;stroke:#000000;stroke-width:0.264583px;stroke-linecap:butt;stroke-linejoin:miter;stroke-opacity:1"
       d="m 4016.5456,370.84677 c 56.2184,-8.08091 106.2792,-0.0122 161.6054,6.08875 97.3151,10.73126 -0.377,-2.96675 95.4019,11.3983"
       id="path1134" />
    <path
       style="fill:none;stroke:#000000;stroke-width:0.264583px;stroke-linecap:butt;stroke-linejoin:miter;stroke-opacity:1"
       d="m 5139.4806,-59.161362 c 56.3145,2.946466 112.4559,7.063105 168.8262,9.186881"
       id="path1136" />
    <path
       style="fill:none;stroke:#000000;stroke-width:0.264583px;stroke-linecap:butt;stroke-linejoin:miter;stroke-opacity:1"
       d="m 4868.745,-257.32906 c 0.4376,3.71037 0.8445,7.42445 1.3126,11.13111 2.1526,17.05262 5.9732,33.96798 6.5492,51.14628 0.585,17.44822 -4.94,103.467595 -4.7024,124.814998 0.2651,23.826877 -3.4907,20.432892 7.0355,26.038879"
       id="path1138" />
    <path
       style="fill:none;stroke:#000000;stroke-width:0.264583px;stroke-linecap:butt;stroke-linejoin:miter;stroke-opacity:1"
       d="m 5058.7216,321.25142 c 13.2181,-3.16937 16.4648,-4.50109 31.7773,-5.01785 20.3824,-0.68789 40.8249,0.65024 61.1782,-0.6345 70.035,-4.42071 80.599,-7.66884 141.8704,-18.40542"
       id="path1140" />
    <path
       style="fill:none;stroke:#000000;stroke-width:0.264583px;stroke-linecap:butt;stroke-linejoin:miter;stroke-opacity:1"
       d="m 4792.3894,490.13435 c 18.0721,37.77972 19.8691,64.9115 21.0436,106.11247 0.9864,34.60694 -4.9345,22.69587 2.0558,35.3746"
       id="path1142" />
  </g>
</svg>
